<?xml version="1.0" encoding="UTF-8"?>
<svg version="1.1" xmlns="http://www.w3.org/2000/svg" width="727" height="480">
<path d="M0 0 C0.87011719 0.46277344 1.74023438 0.92554688 2.63671875 1.40234375 C14.91566534 8.36105602 24.69521369 18.41270944 34.54296875 28.34765625 C35.80475978 29.61318747 37.06700055 30.87827043 38.32966614 32.14292908 C41.61703611 35.43785644 44.8983498 38.73874876 48.17834473 42.04101562 C51.54031725 45.42361876 54.90811282 48.80041392 58.27539062 52.17773438 C64.85590118 58.77955513 71.43001429 65.3877062 78 72 C84.17562437 66.95334753 89.72776453 61.34810908 95.31277657 55.67069244 C97.04004627 53.91642 98.77196203 52.16686062 100.50535583 50.41864014 C105.42994494 45.45168529 110.35196021 40.48228596 115.25708008 35.49609375 C118.27126636 32.43277672 121.2956497 29.37983624 124.32645988 26.33296967 C125.46580043 25.18387351 126.60151791 24.03117098 127.7331562 22.87448883 C146.39290033 3.81128215 168.46970747 -9.83442029 195.90966797 -10.29223633 C226.72923588 -10.47576511 249.20120471 0.27157119 271.10194397 21.83451843 C273.81904895 24.52633784 276.52340742 27.23070575 279.22680664 29.9362793 C280.72903222 31.43250918 282.23166314 32.92833219 283.73466492 34.42378235 C287.78898739 38.46054639 291.83690573 42.50367217 295.88309789 46.54858375 C298.41771336 49.08177161 300.95375027 51.61352747 303.4902935 54.14478493 C312.35738732 62.99341404 321.21933887 71.84715546 330.07641602 80.70581055 C338.30439997 88.93499582 346.54347395 97.15295993 354.78783137 105.36573857 C361.89087648 112.4425539 368.98610907 119.52713907 376.07541364 126.61771899 C380.29856791 130.84138079 384.52470154 135.06194643 388.75874519 139.27469444 C392.74289622 143.23934925 396.71715221 147.21367219 400.68432808 151.19531059 C402.13278701 152.64584443 403.58459466 154.0930442 405.04017258 155.53643417 C426.0372349 176.36917237 440.13111601 198.85310151 440.3125 229.3125 C440.36964435 259.75985491 427.27105232 281.831722 406.23388064 303.04265952 C404.16979591 305.11256908 402.10097469 307.17767247 400.03198242 309.24267578 C398.53249881 310.74651478 397.033431 312.25076847 395.53474426 313.75540161 C391.48975673 317.81369976 387.43847085 321.8656527 383.38555312 325.91602945 C379.99178602 329.30872169 376.60101176 332.70439748 373.21017247 336.10001552 C365.20617275 344.11508244 357.19689154 352.12484442 349.18432617 360.13134766 C340.94077299 368.36885949 332.70644476 376.61551094 324.47656363 384.86668026 C317.38784185 391.97305782 310.29328343 399.07357166 303.19410402 406.16950214 C298.96398378 410.39781612 294.7360791 414.62828472 290.51384544 418.86447525 C286.54208721 422.84887244 282.56304476 426.82585292 278.57847404 430.79743576 C277.12475427 432.24880361 275.67354103 433.7026875 274.22515488 435.15937805 C264.20807146 445.22970483 254.10147101 455.11675986 241.125 461.3125 C240.45936035 461.63806885 239.7937207 461.9636377 239.10791016 462.29907227 C219.10059553 471.75763572 193.11651355 473.81708464 172.00634766 466.73632812 C149.79544401 458.5849427 134.04954933 443.22911369 117.671875 426.76953125 C116.54581478 425.64159907 115.41952849 424.51389256 114.29302979 423.38639832 C111.37123279 420.46083729 108.45245464 417.53228344 105.53436279 414.60302734 C102.53910112 411.59741775 99.54090032 408.59474297 96.54296875 405.59179688 C90.69248312 399.7306822 84.84519339 393.86639253 79 388 C72.89166425 393.00116614 67.37819507 398.53141679 61.8418541 404.14411163 C60.14388196 405.86440116 58.44172465 407.58044764 56.73831177 409.29534912 C51.89927443 414.16768478 47.06434535 419.04403417 42.24023438 423.93115234 C39.27565689 426.93384351 36.3034197 429.9287784 33.32648087 432.91921234 C32.20676041 434.04687188 31.08979526 435.17727559 29.97591782 436.31070709 C20.11592495 446.34067029 9.72442104 456.0395803 -3.25 461.875 C-4.05880615 462.24230225 -4.8676123 462.60960449 -5.70092773 462.98803711 C-28.36999705 472.91475455 -53.45042135 472.81335951 -76.6875 464.71484375 C-97.02891447 456.70764222 -111.73098269 440.41682052 -126.88134766 425.2956543 C-128.33467661 423.84860709 -129.78818842 422.40174352 -131.24186707 420.95504761 C-135.96944634 416.24829092 -140.69189047 411.53639931 -145.4140625 406.82421875 C-147.05076412 405.19157151 -148.68749706 403.55895567 -150.32426071 401.92637062 C-158.01120875 394.25841864 -165.69578041 386.58809496 -173.37741911 378.91482419 C-182.20610648 370.0959176 -191.04302357 361.28536587 -199.88697588 352.48176831 C-206.75214123 345.6468441 -213.60953514 338.80418421 -220.46124876 331.95577556 C-224.54105041 327.87831315 -228.6240228 323.80415603 -232.71529007 319.73819542 C-236.56394374 315.91297114 -240.40278431 312.07815563 -244.23462868 308.23609543 C-245.633087 306.83714541 -247.0349022 305.44154074 -248.44050789 304.04977226 C-259.04205425 293.5466891 -269.19730373 282.47245669 -275.375 268.6875 C-275.69533203 267.977146 -276.01566406 267.26679199 -276.34570312 266.53491211 C-285.85231371 244.58112784 -286.29763469 218.73606209 -277.609375 196.4296875 C-276.18931469 193.2083928 -274.65827591 190.10459174 -273 187 C-272.53722656 186.12988281 -272.07445312 185.25976562 -271.59765625 184.36328125 C-264.26023351 171.41608379 -253.4695071 161.17472566 -243.03198242 150.75732422 C-241.53249881 149.25348522 -240.033431 147.74923153 -238.53474426 146.24459839 C-234.48975673 142.18630024 -230.43847085 138.1343473 -226.38555312 134.08397055 C-222.99178602 130.69127831 -219.60101176 127.29560252 -216.21017247 123.89998448 C-208.20617275 115.88491756 -200.19689154 107.87515558 -192.18432617 99.86865234 C-183.94077299 91.63114051 -175.70644476 83.38448906 -167.47656363 75.13331974 C-160.38784185 68.02694218 -153.29328343 60.92642834 -146.19410402 53.83049786 C-141.96398378 49.60218388 -137.7360791 45.37171528 -133.51384544 41.13552475 C-129.54208721 37.15112756 -125.56304476 33.17414708 -121.57847404 29.20256424 C-120.12475427 27.75119639 -118.67354103 26.2973125 -117.22515488 24.84062195 C-107.20807146 14.77029517 -97.10147101 4.88324014 -84.125 -1.3125 C-83.45936035 -1.63806885 -82.7937207 -1.9636377 -82.10791016 -2.29907227 C-56.34195772 -14.4800621 -24.98561544 -13.34573034 0 0 Z " fill="#E5E5E5" transform="translate(283,10)"/>
</svg>
