<?xml version="1.0" encoding="UTF-8"?>
<svg version="1.1" xmlns="http://www.w3.org/2000/svg" width="310" height="318">
<path d="M0 0 C1.45166245 1.3004177 2.78392415 2.73030229 4.10986328 4.15869141 C13.38466722 14.02751481 24.60184025 16.3318437 37.48095703 19.32666016 C37.48095703 20.64666016 37.48095703 21.96666016 37.48095703 23.32666016 C38.98691264 25.05985699 38.98691264 25.05985699 41.04345703 26.57666016 C56.44960124 39.43767685 64.55803539 57.69268997 67.48095703 77.32666016 C67.59367016 79.43765178 67.64187389 81.54399765 67.68457031 83.6574707 C67.8669489 92.1860693 69.47676529 97.50526873 73.69580078 105.03369141 C80.19472365 117.02185765 83.02075486 132.2678905 79.29345703 145.57666016 C72.49173654 164.84820156 57.55764077 179.28068103 41.35595703 191.10791016 C35.54443094 195.59289225 32.39432665 199.91130224 29.23095703 206.38916016 C25.33140955 214.03805154 21.02812984 220.73190975 15.48095703 227.32666016 C14.84673828 228.08591797 14.21251953 228.84517578 13.55908203 229.62744141 C6.64439234 237.2135989 -3.24472722 242.36245514 -13.51904297 243.32666016 C-25.8517091 243.83031208 -25.8517091 243.83031208 -30.83862305 242.88867188 C-38.54727532 241.54096821 -42.85309803 244.05238782 -49.33154297 248.07666016 C-62.58627563 255.7712058 -73.95974608 259.637127 -89.39404297 255.56884766 C-100.60445138 251.77896527 -110.19529295 245.47646504 -119.51904297 238.32666016 C-120.20482422 237.80475098 -120.89060547 237.2828418 -121.59716797 236.74511719 C-129.68573141 230.57933079 -137.74054186 224.43035755 -145.18310547 217.48681641 C-147.16333821 215.65559783 -149.17680667 213.88917239 -151.21826172 212.12744141 C-174.33183123 191.94334498 -201.2909688 163.92658595 -203.65844727 131.41210938 C-205.05236518 102.06755601 -189.98306712 80.63163205 -172.02001953 58.84350586 C-166.71013445 52.3920115 -162.31469709 46.07178028 -158.70654297 38.51416016 C-151.27479295 23.28198322 -139.71184199 10.95410586 -124.26904297 3.82666016 C-119.45331609 1.19990004 -115.91756267 -2.8687983 -112.58154297 -7.17333984 C-107.34777308 -13.51730334 -100.29499939 -19.04825756 -93.51904297 -23.67333984 C-92.85904297 -23.67333984 -92.19904297 -23.67333984 -91.51904297 -23.67333984 C-91.02404297 -22.68333984 -91.02404297 -22.68333984 -90.51904297 -21.67333984 C-89.75720703 -21.87830078 -88.99537109 -22.08326172 -88.21044922 -22.29443359 C-55.8575862 -30.73606702 -25.30406603 -20.947601 0 0 Z " fill="#293555" transform="translate(218.51904296875,43.67333984375)"/>
</svg>
